<mxfile host="app.diagrams.net" modified="2021-03-19T15:08:37.644Z" agent="5.0 (X11)" etag="bc__Wdnl3Umo8fJIro7d" version="14.4.4" type="github">
  <diagram id="C5RBs43oDa-KdzZeNtuy" name="Page-1">
    <mxGraphModel dx="1350" dy="804" grid="1" gridSize="10" guides="1" tooltips="1" connect="1" arrows="1" fold="1" page="1" pageScale="1" pageWidth="827" pageHeight="1169" math="0" shadow="0">
      <root>
        <mxCell id="WIyWlLk6GJQsqaUBKTNV-0" />
        <mxCell id="WIyWlLk6GJQsqaUBKTNV-1" parent="WIyWlLk6GJQsqaUBKTNV-0" />
        <mxCell id="WIyWlLk6GJQsqaUBKTNV-2" value="" style="rounded=0;html=1;jettySize=auto;orthogonalLoop=1;fontSize=11;endArrow=block;endFill=0;endSize=8;strokeWidth=1;shadow=0;labelBackgroundColor=none;edgeStyle=orthogonalEdgeStyle;" parent="WIyWlLk6GJQsqaUBKTNV-1" source="WIyWlLk6GJQsqaUBKTNV-3" target="WIyWlLk6GJQsqaUBKTNV-6" edge="1">
          <mxGeometry relative="1" as="geometry" />
        </mxCell>
        <mxCell id="WIyWlLk6GJQsqaUBKTNV-3" value="Camera::Open()" style="rounded=1;whiteSpace=wrap;html=1;fontSize=12;glass=0;strokeWidth=1;shadow=0;" parent="WIyWlLk6GJQsqaUBKTNV-1" vertex="1">
          <mxGeometry x="390" y="50" width="120" height="40" as="geometry" />
        </mxCell>
        <mxCell id="WIyWlLk6GJQsqaUBKTNV-5" value="No" style="edgeStyle=orthogonalEdgeStyle;rounded=0;html=1;jettySize=auto;orthogonalLoop=1;fontSize=11;endArrow=block;endFill=0;endSize=8;strokeWidth=1;shadow=0;labelBackgroundColor=none;" parent="WIyWlLk6GJQsqaUBKTNV-1" source="WIyWlLk6GJQsqaUBKTNV-6" target="WIyWlLk6GJQsqaUBKTNV-7" edge="1">
          <mxGeometry y="10" relative="1" as="geometry">
            <mxPoint as="offset" />
          </mxGeometry>
        </mxCell>
        <mxCell id="4JzIJsXhWSQ4jOJe1Pqj-4" style="edgeStyle=orthogonalEdgeStyle;rounded=0;orthogonalLoop=1;jettySize=auto;html=1;exitX=0.5;exitY=1;exitDx=0;exitDy=0;entryX=0.5;entryY=0;entryDx=0;entryDy=0;endArrow=block;endFill=0;" parent="WIyWlLk6GJQsqaUBKTNV-1" source="WIyWlLk6GJQsqaUBKTNV-6" target="4JzIJsXhWSQ4jOJe1Pqj-1" edge="1">
          <mxGeometry relative="1" as="geometry" />
        </mxCell>
        <mxCell id="4JzIJsXhWSQ4jOJe1Pqj-5" value="Yes" style="edgeStyle=orthogonalEdgeStyle;rounded=0;orthogonalLoop=1;jettySize=auto;html=1;endArrow=block;endFill=0;strokeColor=#000000;" parent="WIyWlLk6GJQsqaUBKTNV-1" source="WIyWlLk6GJQsqaUBKTNV-6" target="4JzIJsXhWSQ4jOJe1Pqj-1" edge="1">
          <mxGeometry y="-10" relative="1" as="geometry">
            <mxPoint as="offset" />
          </mxGeometry>
        </mxCell>
        <mxCell id="WIyWlLk6GJQsqaUBKTNV-6" value="Success ?" style="rhombus;whiteSpace=wrap;html=1;shadow=0;fontFamily=Helvetica;fontSize=12;align=center;strokeWidth=1;spacing=6;spacingTop=-4;" parent="WIyWlLk6GJQsqaUBKTNV-1" vertex="1">
          <mxGeometry x="408.75" y="120" width="82.5" height="70" as="geometry" />
        </mxCell>
        <mxCell id="I7K2Mm8xnL4FuIroY9cY-51" style="edgeStyle=orthogonalEdgeStyle;rounded=0;orthogonalLoop=1;jettySize=auto;html=1;exitX=0.5;exitY=1;exitDx=0;exitDy=0;entryX=0.5;entryY=0;entryDx=0;entryDy=0;endArrow=block;endFill=0;" edge="1" parent="WIyWlLk6GJQsqaUBKTNV-1" source="WIyWlLk6GJQsqaUBKTNV-7" target="I7K2Mm8xnL4FuIroY9cY-49">
          <mxGeometry relative="1" as="geometry" />
        </mxCell>
        <mxCell id="WIyWlLk6GJQsqaUBKTNV-7" value="Nack Moniteur" style="rounded=1;whiteSpace=wrap;html=1;fontSize=12;glass=0;strokeWidth=1;shadow=0;" parent="WIyWlLk6GJQsqaUBKTNV-1" vertex="1">
          <mxGeometry x="550" y="135" width="120" height="40" as="geometry" />
        </mxCell>
        <mxCell id="4JzIJsXhWSQ4jOJe1Pqj-10" style="edgeStyle=orthogonalEdgeStyle;rounded=0;orthogonalLoop=1;jettySize=auto;html=1;exitX=0.5;exitY=1;exitDx=0;exitDy=0;endArrow=block;endFill=0;strokeColor=#000000;" parent="WIyWlLk6GJQsqaUBKTNV-1" source="WIyWlLk6GJQsqaUBKTNV-10" edge="1">
          <mxGeometry relative="1" as="geometry">
            <mxPoint x="450.0344827586207" y="450.02758620689656" as="targetPoint" />
          </mxGeometry>
        </mxCell>
        <mxCell id="I7K2Mm8xnL4FuIroY9cY-9" style="edgeStyle=orthogonalEdgeStyle;rounded=0;orthogonalLoop=1;jettySize=auto;html=1;exitX=0.5;exitY=1;exitDx=0;exitDy=0;entryX=0.5;entryY=0;entryDx=0;entryDy=0;endArrow=block;endFill=0;" edge="1" parent="WIyWlLk6GJQsqaUBKTNV-1" source="WIyWlLk6GJQsqaUBKTNV-10" target="I7K2Mm8xnL4FuIroY9cY-8">
          <mxGeometry relative="1" as="geometry" />
        </mxCell>
        <mxCell id="I7K2Mm8xnL4FuIroY9cY-12" style="edgeStyle=orthogonalEdgeStyle;rounded=0;orthogonalLoop=1;jettySize=auto;html=1;exitX=0;exitY=0.5;exitDx=0;exitDy=0;entryX=0.5;entryY=0;entryDx=0;entryDy=0;endArrow=block;endFill=0;" edge="1" parent="WIyWlLk6GJQsqaUBKTNV-1" source="WIyWlLk6GJQsqaUBKTNV-10" target="4JzIJsXhWSQ4jOJe1Pqj-19">
          <mxGeometry relative="1" as="geometry" />
        </mxCell>
        <mxCell id="WIyWlLk6GJQsqaUBKTNV-10" value="" style="rhombus;whiteSpace=wrap;html=1;shadow=0;fontFamily=Helvetica;fontSize=12;align=center;strokeWidth=1;spacing=6;spacingTop=-4;" parent="WIyWlLk6GJQsqaUBKTNV-1" vertex="1">
          <mxGeometry x="425" y="420" width="50" height="50" as="geometry" />
        </mxCell>
        <mxCell id="I7K2Mm8xnL4FuIroY9cY-6" style="edgeStyle=orthogonalEdgeStyle;rounded=0;orthogonalLoop=1;jettySize=auto;html=1;exitX=0.5;exitY=1;exitDx=0;exitDy=0;entryX=0.5;entryY=0;entryDx=0;entryDy=0;endArrow=block;endFill=0;" edge="1" parent="WIyWlLk6GJQsqaUBKTNV-1" source="WIyWlLk6GJQsqaUBKTNV-12" target="I7K2Mm8xnL4FuIroY9cY-4">
          <mxGeometry relative="1" as="geometry" />
        </mxCell>
        <mxCell id="WIyWlLk6GJQsqaUBKTNV-12" value="Set_period(100)" style="rounded=1;whiteSpace=wrap;html=1;fontSize=12;glass=0;strokeWidth=1;shadow=0;" parent="WIyWlLk6GJQsqaUBKTNV-1" vertex="1">
          <mxGeometry x="390" y="300" width="120" height="40" as="geometry" />
        </mxCell>
        <mxCell id="4JzIJsXhWSQ4jOJe1Pqj-1" value="Ack Moniteur" style="rounded=1;whiteSpace=wrap;html=1;" parent="WIyWlLk6GJQsqaUBKTNV-1" vertex="1">
          <mxGeometry x="390" y="230" width="120" height="40" as="geometry" />
        </mxCell>
        <mxCell id="4JzIJsXhWSQ4jOJe1Pqj-3" value="" style="endArrow=classic;html=1;strokeColor=#FFFFFF;" parent="WIyWlLk6GJQsqaUBKTNV-1" edge="1">
          <mxGeometry width="50" height="50" relative="1" as="geometry">
            <mxPoint x="430" y="410" as="sourcePoint" />
            <mxPoint x="480" y="360" as="targetPoint" />
          </mxGeometry>
        </mxCell>
        <mxCell id="4JzIJsXhWSQ4jOJe1Pqj-6" value="" style="endArrow=block;html=1;strokeColor=#000000;exitX=0.5;exitY=1;exitDx=0;exitDy=0;endFill=0;" parent="WIyWlLk6GJQsqaUBKTNV-1" source="4JzIJsXhWSQ4jOJe1Pqj-1" target="WIyWlLk6GJQsqaUBKTNV-12" edge="1">
          <mxGeometry width="50" height="50" relative="1" as="geometry">
            <mxPoint x="430" y="410" as="sourcePoint" />
            <mxPoint x="480" y="360" as="targetPoint" />
          </mxGeometry>
        </mxCell>
        <mxCell id="I7K2Mm8xnL4FuIroY9cY-11" style="edgeStyle=orthogonalEdgeStyle;rounded=0;orthogonalLoop=1;jettySize=auto;html=1;exitX=0.5;exitY=1;exitDx=0;exitDy=0;entryX=0.5;entryY=0;entryDx=0;entryDy=0;endArrow=block;endFill=0;" edge="1" parent="WIyWlLk6GJQsqaUBKTNV-1" source="4JzIJsXhWSQ4jOJe1Pqj-19" target="4JzIJsXhWSQ4jOJe1Pqj-27">
          <mxGeometry relative="1" as="geometry" />
        </mxCell>
        <mxCell id="4JzIJsXhWSQ4jOJe1Pqj-19" value="&lt;div&gt;Reception&lt;/div&gt;&lt;div&gt;find arena&lt;br&gt;&lt;/div&gt;" style="rhombus;whiteSpace=wrap;html=1;shadow=0;fontFamily=Helvetica;fontSize=12;align=center;strokeWidth=1;spacing=6;spacingTop=-4;" parent="WIyWlLk6GJQsqaUBKTNV-1" vertex="1">
          <mxGeometry x="250" y="500" width="100" height="80" as="geometry" />
        </mxCell>
        <mxCell id="4JzIJsXhWSQ4jOJe1Pqj-25" style="edgeStyle=orthogonalEdgeStyle;rounded=0;orthogonalLoop=1;jettySize=auto;html=1;exitX=0.5;exitY=1;exitDx=0;exitDy=0;entryX=0.5;entryY=0;entryDx=0;entryDy=0;endArrow=block;endFill=0;strokeColor=#000000;" parent="WIyWlLk6GJQsqaUBKTNV-1" source="4JzIJsXhWSQ4jOJe1Pqj-21" target="4JzIJsXhWSQ4jOJe1Pqj-24" edge="1">
          <mxGeometry relative="1" as="geometry" />
        </mxCell>
        <mxCell id="4JzIJsXhWSQ4jOJe1Pqj-21" value="&lt;div&gt;Envoyer&lt;/div&gt;&lt;div&gt;Image Moniteur&lt;/div&gt;" style="rounded=1;whiteSpace=wrap;html=1;fontSize=12;glass=0;strokeWidth=1;shadow=0;" parent="WIyWlLk6GJQsqaUBKTNV-1" vertex="1">
          <mxGeometry x="390" y="650" width="120" height="40" as="geometry" />
        </mxCell>
        <mxCell id="4JzIJsXhWSQ4jOJe1Pqj-26" style="edgeStyle=orthogonalEdgeStyle;rounded=0;orthogonalLoop=1;jettySize=auto;html=1;exitX=1;exitY=0.5;exitDx=0;exitDy=0;entryX=1;entryY=0.5;entryDx=0;entryDy=0;endArrow=block;endFill=0;strokeColor=#000000;" parent="WIyWlLk6GJQsqaUBKTNV-1" source="4JzIJsXhWSQ4jOJe1Pqj-24" target="WIyWlLk6GJQsqaUBKTNV-10" edge="1">
          <mxGeometry relative="1" as="geometry">
            <Array as="points">
              <mxPoint x="580" y="765" />
              <mxPoint x="580" y="445" />
            </Array>
          </mxGeometry>
        </mxCell>
        <mxCell id="I7K2Mm8xnL4FuIroY9cY-42" style="edgeStyle=orthogonalEdgeStyle;rounded=0;orthogonalLoop=1;jettySize=auto;html=1;exitX=0.5;exitY=1;exitDx=0;exitDy=0;entryX=0;entryY=0.5;entryDx=0;entryDy=0;endArrow=block;endFill=0;" edge="1" parent="WIyWlLk6GJQsqaUBKTNV-1" source="4JzIJsXhWSQ4jOJe1Pqj-24" target="I7K2Mm8xnL4FuIroY9cY-40">
          <mxGeometry relative="1" as="geometry" />
        </mxCell>
        <mxCell id="4JzIJsXhWSQ4jOJe1Pqj-24" value="" style="rhombus;whiteSpace=wrap;html=1;shadow=0;fontFamily=Helvetica;fontSize=12;align=center;strokeWidth=1;spacing=6;spacingTop=-4;" parent="WIyWlLk6GJQsqaUBKTNV-1" vertex="1">
          <mxGeometry x="425" y="740" width="50" height="50" as="geometry" />
        </mxCell>
        <mxCell id="4JzIJsXhWSQ4jOJe1Pqj-27" value="img::SearchArena()" style="rounded=1;whiteSpace=wrap;html=1;fontSize=12;glass=0;strokeWidth=1;shadow=0;" parent="WIyWlLk6GJQsqaUBKTNV-1" vertex="1">
          <mxGeometry x="240" y="600" width="120" height="40" as="geometry" />
        </mxCell>
        <mxCell id="4JzIJsXhWSQ4jOJe1Pqj-32" value="No" style="edgeStyle=orthogonalEdgeStyle;rounded=0;orthogonalLoop=1;jettySize=auto;html=1;exitX=0.5;exitY=1;exitDx=0;exitDy=0;entryX=0.5;entryY=0;entryDx=0;entryDy=0;endArrow=block;endFill=0;strokeColor=#000000;" parent="WIyWlLk6GJQsqaUBKTNV-1" source="4JzIJsXhWSQ4jOJe1Pqj-27" target="4JzIJsXhWSQ4jOJe1Pqj-31" edge="1">
          <mxGeometry x="0.2" y="20" relative="1" as="geometry">
            <mxPoint as="offset" />
            <mxPoint x="300" y="755" as="sourcePoint" />
          </mxGeometry>
        </mxCell>
        <mxCell id="4JzIJsXhWSQ4jOJe1Pqj-35" value="Yes" style="edgeStyle=orthogonalEdgeStyle;rounded=0;orthogonalLoop=1;jettySize=auto;html=1;endArrow=block;endFill=0;strokeColor=#000000;" parent="WIyWlLk6GJQsqaUBKTNV-1" source="4JzIJsXhWSQ4jOJe1Pqj-27" target="4JzIJsXhWSQ4jOJe1Pqj-33" edge="1">
          <mxGeometry x="-0.3333" y="-15" relative="1" as="geometry">
            <mxPoint as="offset" />
            <mxPoint x="260" y="720" as="sourcePoint" />
          </mxGeometry>
        </mxCell>
        <mxCell id="4JzIJsXhWSQ4jOJe1Pqj-39" style="edgeStyle=orthogonalEdgeStyle;rounded=0;orthogonalLoop=1;jettySize=auto;html=1;exitX=0.5;exitY=1;exitDx=0;exitDy=0;endArrow=block;endFill=0;strokeColor=#000000;" parent="WIyWlLk6GJQsqaUBKTNV-1" source="4JzIJsXhWSQ4jOJe1Pqj-31" target="4JzIJsXhWSQ4jOJe1Pqj-38" edge="1">
          <mxGeometry relative="1" as="geometry" />
        </mxCell>
        <mxCell id="4JzIJsXhWSQ4jOJe1Pqj-31" value="&lt;div&gt;Nack Moniteur&lt;/div&gt;" style="rounded=1;whiteSpace=wrap;html=1;" parent="WIyWlLk6GJQsqaUBKTNV-1" vertex="1">
          <mxGeometry x="240" y="790" width="120" height="40" as="geometry" />
        </mxCell>
        <mxCell id="4JzIJsXhWSQ4jOJe1Pqj-37" style="edgeStyle=orthogonalEdgeStyle;rounded=0;orthogonalLoop=1;jettySize=auto;html=1;entryX=0.5;entryY=0;entryDx=0;entryDy=0;endArrow=block;endFill=0;strokeColor=#000000;" parent="WIyWlLk6GJQsqaUBKTNV-1" source="4JzIJsXhWSQ4jOJe1Pqj-33" target="4JzIJsXhWSQ4jOJe1Pqj-36" edge="1">
          <mxGeometry relative="1" as="geometry" />
        </mxCell>
        <mxCell id="4JzIJsXhWSQ4jOJe1Pqj-33" value="&lt;div&gt;Img::DrawArena&lt;br&gt;&lt;/div&gt;" style="rounded=1;whiteSpace=wrap;html=1;" parent="WIyWlLk6GJQsqaUBKTNV-1" vertex="1">
          <mxGeometry x="80" y="700" width="120" height="40" as="geometry" />
        </mxCell>
        <mxCell id="4JzIJsXhWSQ4jOJe1Pqj-40" style="edgeStyle=orthogonalEdgeStyle;rounded=0;orthogonalLoop=1;jettySize=auto;html=1;exitX=0.5;exitY=1;exitDx=0;exitDy=0;endArrow=block;endFill=0;strokeColor=#000000;" parent="WIyWlLk6GJQsqaUBKTNV-1" source="4JzIJsXhWSQ4jOJe1Pqj-36" target="4JzIJsXhWSQ4jOJe1Pqj-38" edge="1">
          <mxGeometry relative="1" as="geometry" />
        </mxCell>
        <mxCell id="4JzIJsXhWSQ4jOJe1Pqj-36" value="&lt;div&gt;Envoyer&lt;/div&gt;&lt;div&gt;Image Moniteur&lt;/div&gt;" style="rounded=1;whiteSpace=wrap;html=1;fontSize=12;glass=0;strokeWidth=1;shadow=0;" parent="WIyWlLk6GJQsqaUBKTNV-1" vertex="1">
          <mxGeometry x="80" y="780" width="120" height="40" as="geometry" />
        </mxCell>
        <mxCell id="4JzIJsXhWSQ4jOJe1Pqj-42" style="edgeStyle=orthogonalEdgeStyle;rounded=0;orthogonalLoop=1;jettySize=auto;html=1;exitX=0.5;exitY=1;exitDx=0;exitDy=0;entryX=0.5;entryY=0;entryDx=0;entryDy=0;endArrow=block;endFill=0;strokeColor=#000000;" parent="WIyWlLk6GJQsqaUBKTNV-1" source="4JzIJsXhWSQ4jOJe1Pqj-38" target="4RPxTmcuRljI4eWdtnsq-3" edge="1">
          <mxGeometry relative="1" as="geometry">
            <mxPoint x="300" y="960" as="targetPoint" />
          </mxGeometry>
        </mxCell>
        <mxCell id="4JzIJsXhWSQ4jOJe1Pqj-38" value="&lt;div&gt;Reception&lt;/div&gt;&lt;div&gt;Moniteur&lt;/div&gt;" style="rounded=1;whiteSpace=wrap;html=1;fontSize=12;glass=0;strokeWidth=1;shadow=0;" parent="WIyWlLk6GJQsqaUBKTNV-1" vertex="1">
          <mxGeometry x="240" y="890" width="120" height="40" as="geometry" />
        </mxCell>
        <mxCell id="4JzIJsXhWSQ4jOJe1Pqj-43" value="No" style="edgeStyle=orthogonalEdgeStyle;rounded=0;orthogonalLoop=1;jettySize=auto;html=1;exitX=1;exitY=0.5;exitDx=0;exitDy=0;entryX=0;entryY=0.5;entryDx=0;entryDy=0;endArrow=block;endFill=0;strokeColor=#000000;" parent="WIyWlLk6GJQsqaUBKTNV-1" source="4RPxTmcuRljI4eWdtnsq-3" target="4JzIJsXhWSQ4jOJe1Pqj-24" edge="1">
          <mxGeometry x="-0.5202" y="18" relative="1" as="geometry">
            <mxPoint as="offset" />
            <mxPoint x="350" y="1000" as="sourcePoint" />
          </mxGeometry>
        </mxCell>
        <mxCell id="4JzIJsXhWSQ4jOJe1Pqj-45" value="Yes" style="edgeStyle=orthogonalEdgeStyle;rounded=0;orthogonalLoop=1;jettySize=auto;html=1;exitX=0;exitY=0.5;exitDx=0;exitDy=0;entryX=1;entryY=0.5;entryDx=0;entryDy=0;endArrow=block;endFill=0;strokeColor=#000000;" parent="WIyWlLk6GJQsqaUBKTNV-1" source="4RPxTmcuRljI4eWdtnsq-3" target="4JzIJsXhWSQ4jOJe1Pqj-44" edge="1">
          <mxGeometry x="-0.3333" y="-20" relative="1" as="geometry">
            <mxPoint as="offset" />
            <mxPoint x="250" y="1000" as="sourcePoint" />
          </mxGeometry>
        </mxCell>
        <mxCell id="4JzIJsXhWSQ4jOJe1Pqj-44" value="Save Arena" style="rounded=1;whiteSpace=wrap;html=1;fontSize=12;glass=0;strokeWidth=1;shadow=0;" parent="WIyWlLk6GJQsqaUBKTNV-1" vertex="1">
          <mxGeometry x="90" y="980" width="120" height="40" as="geometry" />
        </mxCell>
        <mxCell id="4JzIJsXhWSQ4jOJe1Pqj-51" style="edgeStyle=orthogonalEdgeStyle;rounded=0;orthogonalLoop=1;jettySize=auto;html=1;exitX=0.5;exitY=1;exitDx=0;exitDy=0;entryX=0.5;entryY=0;entryDx=0;entryDy=0;endArrow=block;endFill=0;strokeColor=#000000;" parent="WIyWlLk6GJQsqaUBKTNV-1" source="4JzIJsXhWSQ4jOJe1Pqj-48" target="WIyWlLk6GJQsqaUBKTNV-3" edge="1">
          <mxGeometry relative="1" as="geometry" />
        </mxCell>
        <mxCell id="4JzIJsXhWSQ4jOJe1Pqj-48" value="" style="ellipse;whiteSpace=wrap;html=1;aspect=fixed;fillColor=#000000;" parent="WIyWlLk6GJQsqaUBKTNV-1" vertex="1">
          <mxGeometry x="440" y="10" width="20" height="20" as="geometry" />
        </mxCell>
        <mxCell id="4RPxTmcuRljI4eWdtnsq-3" value="&lt;div&gt;Arena&lt;/div&gt;&lt;div&gt;Confirm ?&lt;/div&gt;" style="rounded=1;whiteSpace=wrap;html=1;fontSize=12;glass=0;strokeWidth=1;shadow=0;" parent="WIyWlLk6GJQsqaUBKTNV-1" vertex="1">
          <mxGeometry x="240" y="980" width="120" height="40" as="geometry" />
        </mxCell>
        <mxCell id="I7K2Mm8xnL4FuIroY9cY-7" style="edgeStyle=orthogonalEdgeStyle;rounded=0;orthogonalLoop=1;jettySize=auto;html=1;exitX=0.5;exitY=1;exitDx=0;exitDy=0;entryX=0.5;entryY=0;entryDx=0;entryDy=0;endArrow=block;endFill=0;" edge="1" parent="WIyWlLk6GJQsqaUBKTNV-1" source="I7K2Mm8xnL4FuIroY9cY-4" target="WIyWlLk6GJQsqaUBKTNV-10">
          <mxGeometry relative="1" as="geometry" />
        </mxCell>
        <mxCell id="I7K2Mm8xnL4FuIroY9cY-4" value="&lt;div&gt;rt_mutex_acquire(&amp;amp;mutex_monitor)&lt;/div&gt;" style="rounded=1;whiteSpace=wrap;html=1;fontSize=12;glass=0;strokeWidth=1;shadow=0;" vertex="1" parent="WIyWlLk6GJQsqaUBKTNV-1">
          <mxGeometry x="350" y="360" width="200" height="35" as="geometry" />
        </mxCell>
        <mxCell id="I7K2Mm8xnL4FuIroY9cY-10" style="edgeStyle=orthogonalEdgeStyle;rounded=0;orthogonalLoop=1;jettySize=auto;html=1;exitX=0.5;exitY=1;exitDx=0;exitDy=0;endArrow=block;endFill=0;" edge="1" parent="WIyWlLk6GJQsqaUBKTNV-1" source="I7K2Mm8xnL4FuIroY9cY-8" target="4JzIJsXhWSQ4jOJe1Pqj-21">
          <mxGeometry relative="1" as="geometry" />
        </mxCell>
        <mxCell id="I7K2Mm8xnL4FuIroY9cY-8" value="camera.grab()" style="rounded=1;whiteSpace=wrap;html=1;fontSize=12;glass=0;strokeWidth=1;shadow=0;" vertex="1" parent="WIyWlLk6GJQsqaUBKTNV-1">
          <mxGeometry x="397.5" y="520" width="105" height="40" as="geometry" />
        </mxCell>
        <mxCell id="I7K2Mm8xnL4FuIroY9cY-14" value="" style="ellipse;whiteSpace=wrap;html=1;aspect=fixed;fillColor=#000000;" vertex="1" parent="WIyWlLk6GJQsqaUBKTNV-1">
          <mxGeometry x="565" y="1140" width="20" height="20" as="geometry" />
        </mxCell>
        <mxCell id="I7K2Mm8xnL4FuIroY9cY-15" value="" style="ellipse;whiteSpace=wrap;html=1;" vertex="1" parent="WIyWlLk6GJQsqaUBKTNV-1">
          <mxGeometry x="570" y="1145" width="10" height="10" as="geometry" />
        </mxCell>
        <mxCell id="I7K2Mm8xnL4FuIroY9cY-47" style="edgeStyle=orthogonalEdgeStyle;rounded=0;orthogonalLoop=1;jettySize=auto;html=1;exitX=0.5;exitY=1;exitDx=0;exitDy=0;entryX=0.5;entryY=0;entryDx=0;entryDy=0;endArrow=block;endFill=0;" edge="1" parent="WIyWlLk6GJQsqaUBKTNV-1" source="I7K2Mm8xnL4FuIroY9cY-18" target="I7K2Mm8xnL4FuIroY9cY-46">
          <mxGeometry relative="1" as="geometry" />
        </mxCell>
        <mxCell id="I7K2Mm8xnL4FuIroY9cY-18" value="Camera::Close()" style="rounded=1;whiteSpace=wrap;html=1;fontSize=12;glass=0;strokeWidth=1;shadow=0;" vertex="1" parent="WIyWlLk6GJQsqaUBKTNV-1">
          <mxGeometry x="515" y="970" width="120" height="40" as="geometry" />
        </mxCell>
        <mxCell id="I7K2Mm8xnL4FuIroY9cY-24" style="edgeStyle=orthogonalEdgeStyle;rounded=0;orthogonalLoop=1;jettySize=auto;html=1;exitX=0.5;exitY=1;exitDx=0;exitDy=0;entryX=0.5;entryY=0;entryDx=0;entryDy=0;endArrow=block;endFill=0;" edge="1" parent="WIyWlLk6GJQsqaUBKTNV-1" source="I7K2Mm8xnL4FuIroY9cY-23" target="I7K2Mm8xnL4FuIroY9cY-14">
          <mxGeometry relative="1" as="geometry" />
        </mxCell>
        <mxCell id="I7K2Mm8xnL4FuIroY9cY-23" value="Ack Moniteur" style="rounded=1;whiteSpace=wrap;html=1;" vertex="1" parent="WIyWlLk6GJQsqaUBKTNV-1">
          <mxGeometry x="515" y="1080" width="120" height="40" as="geometry" />
        </mxCell>
        <mxCell id="I7K2Mm8xnL4FuIroY9cY-44" style="edgeStyle=orthogonalEdgeStyle;rounded=0;orthogonalLoop=1;jettySize=auto;html=1;exitX=0.5;exitY=1;exitDx=0;exitDy=0;entryX=0.5;entryY=0;entryDx=0;entryDy=0;endArrow=block;endFill=0;" edge="1" parent="WIyWlLk6GJQsqaUBKTNV-1" source="I7K2Mm8xnL4FuIroY9cY-37" target="I7K2Mm8xnL4FuIroY9cY-43">
          <mxGeometry relative="1" as="geometry" />
        </mxCell>
        <mxCell id="I7K2Mm8xnL4FuIroY9cY-37" value="&lt;div&gt;rt_mutex_release(&amp;amp;mutex_monitor)&lt;/div&gt;" style="rounded=1;whiteSpace=wrap;html=1;fontSize=12;glass=0;strokeWidth=1;shadow=0;" vertex="1" parent="WIyWlLk6GJQsqaUBKTNV-1">
          <mxGeometry x="475" y="872.5" width="200" height="35" as="geometry" />
        </mxCell>
        <mxCell id="I7K2Mm8xnL4FuIroY9cY-41" style="edgeStyle=orthogonalEdgeStyle;rounded=0;orthogonalLoop=1;jettySize=auto;html=1;exitX=0.5;exitY=1;exitDx=0;exitDy=0;entryX=0.5;entryY=0;entryDx=0;entryDy=0;endArrow=block;endFill=0;" edge="1" parent="WIyWlLk6GJQsqaUBKTNV-1" source="I7K2Mm8xnL4FuIroY9cY-40" target="I7K2Mm8xnL4FuIroY9cY-37">
          <mxGeometry relative="1" as="geometry" />
        </mxCell>
        <mxCell id="I7K2Mm8xnL4FuIroY9cY-40" value="wait_period()" style="rounded=1;whiteSpace=wrap;html=1;fontSize=12;glass=0;strokeWidth=1;shadow=0;" vertex="1" parent="WIyWlLk6GJQsqaUBKTNV-1">
          <mxGeometry x="515" y="810" width="120" height="40" as="geometry" />
        </mxCell>
        <mxCell id="I7K2Mm8xnL4FuIroY9cY-45" style="edgeStyle=orthogonalEdgeStyle;rounded=0;orthogonalLoop=1;jettySize=auto;html=1;exitX=0.5;exitY=1;exitDx=0;exitDy=0;entryX=0.5;entryY=0;entryDx=0;entryDy=0;endArrow=block;endFill=0;" edge="1" parent="WIyWlLk6GJQsqaUBKTNV-1" source="I7K2Mm8xnL4FuIroY9cY-43" target="I7K2Mm8xnL4FuIroY9cY-18">
          <mxGeometry relative="1" as="geometry" />
        </mxCell>
        <mxCell id="I7K2Mm8xnL4FuIroY9cY-43" value="&lt;div&gt;rt_mutex_acquire(&amp;amp;mutex_monitor)&lt;/div&gt;" style="rounded=1;whiteSpace=wrap;html=1;fontSize=12;glass=0;strokeWidth=1;shadow=0;" vertex="1" parent="WIyWlLk6GJQsqaUBKTNV-1">
          <mxGeometry x="475" y="920" width="200" height="35" as="geometry" />
        </mxCell>
        <mxCell id="I7K2Mm8xnL4FuIroY9cY-48" style="edgeStyle=orthogonalEdgeStyle;rounded=0;orthogonalLoop=1;jettySize=auto;html=1;exitX=0.5;exitY=1;exitDx=0;exitDy=0;entryX=0.5;entryY=0;entryDx=0;entryDy=0;endArrow=block;endFill=0;" edge="1" parent="WIyWlLk6GJQsqaUBKTNV-1" source="I7K2Mm8xnL4FuIroY9cY-46" target="I7K2Mm8xnL4FuIroY9cY-23">
          <mxGeometry relative="1" as="geometry" />
        </mxCell>
        <mxCell id="I7K2Mm8xnL4FuIroY9cY-46" value="&lt;div&gt;rt_mutex_release(&amp;amp;mutex_monitor)&lt;/div&gt;" style="rounded=1;whiteSpace=wrap;html=1;fontSize=12;glass=0;strokeWidth=1;shadow=0;" vertex="1" parent="WIyWlLk6GJQsqaUBKTNV-1">
          <mxGeometry x="475" y="1030" width="200" height="35" as="geometry" />
        </mxCell>
        <mxCell id="I7K2Mm8xnL4FuIroY9cY-49" value="" style="ellipse;whiteSpace=wrap;html=1;aspect=fixed;fillColor=#000000;" vertex="1" parent="WIyWlLk6GJQsqaUBKTNV-1">
          <mxGeometry x="600" y="210" width="20" height="20" as="geometry" />
        </mxCell>
        <mxCell id="I7K2Mm8xnL4FuIroY9cY-50" value="" style="ellipse;whiteSpace=wrap;html=1;" vertex="1" parent="WIyWlLk6GJQsqaUBKTNV-1">
          <mxGeometry x="605" y="215" width="10" height="10" as="geometry" />
        </mxCell>
      </root>
    </mxGraphModel>
  </diagram>
</mxfile>
